<?xml version="1.0" encoding="utf-8"?>
<!-- Generator: Adobe Illustrator 21.0.0, SVG Export Plug-In . SVG Version: 6.00 Build 0)  -->
<svg version="1.1" id="Layer_1" xmlns="http://www.w3.org/2000/svg" xmlns:xlink="http://www.w3.org/1999/xlink" x="0px" y="0px"
	 viewBox="0 0 534 311.8" style="enable-background:new 0 0 534 311.8;" xml:space="preserve">
<style type="text/css">
	.st0{fill:url(#SVGID_1_);}
	.st1{fill:url(#SVGID_2_);}
	.st2{opacity:0.49;fill:url(#SVGID_3_);}
	.st3{fill:url(#SVGID_4_);}
	.st4{fill:url(#SVGID_5_);}
	.st5{opacity:0.68;fill:url(#SVGID_6_);}
	.st6{opacity:0.68;fill:url(#SVGID_7_);}
</style>
<g>
	<g>
		<linearGradient id="SVGID_1_" gradientUnits="userSpaceOnUse" x1="243.7776" y1="142.707" x2="243.7776" y2="173.3735">
			<stop  offset="4.294480e-02" style="stop-color:#05548B"/>
			<stop  offset="0.3374" style="stop-color:#22BFCF"/>
			<stop  offset="0.6748" style="stop-color:#22BFCF"/>
			<stop  offset="0.7077" style="stop-color:#23B6C9"/>
			<stop  offset="0.7552" style="stop-color:#1DA7C0"/>
			<stop  offset="0.8116" style="stop-color:#1490B3"/>
			<stop  offset="0.8748" style="stop-color:#0C73A0"/>
			<stop  offset="0.9387" style="stop-color:#05548B"/>
		</linearGradient>
		<path class="st0" d="M231,155.9c0-17.6,13.2-32.2,29.6-32.7c-0.4,0-0.8,0.2-1.1,0.2c-18,0-32.6,14.6-32.6,32.5
			c0,18,14.6,32.5,32.6,32.5c0.4,0,0.7,0,1.1,0C244.2,187.8,231,173.5,231,155.9z"/>
		<linearGradient id="SVGID_2_" gradientUnits="userSpaceOnUse" x1="281.6408" y1="142.5306" x2="281.6408" y2="174.2113">
			<stop  offset="0" style="stop-color:#05548B"/>
			<stop  offset="1.251153e-02" style="stop-color:#04548B"/>
			<stop  offset="1.701884e-02" style="stop-color:#045187"/>
			<stop  offset="2.022993e-02" style="stop-color:#024D81"/>
			<stop  offset="2.281007e-02" style="stop-color:#004778"/>
			<stop  offset="2.453990e-02" style="stop-color:#00406F"/>
			<stop  offset="0.1534" style="stop-color:#05548B"/>
			<stop  offset="0.2392" style="stop-color:#06578E"/>
			<stop  offset="0.3495" style="stop-color:#076094"/>
			<stop  offset="0.4733" style="stop-color:#0C709E"/>
			<stop  offset="0.6069" style="stop-color:#1189AE"/>
			<stop  offset="0.7469" style="stop-color:#1FAAC2"/>
			<stop  offset="0.8037" style="stop-color:#22BFCF"/>
			<stop  offset="0.8898" style="stop-color:#8CD3D6"/>
			<stop  offset="0.9325" style="stop-color:#ABDDD9"/>
			<stop  offset="0.9463" style="stop-color:#93D5D7"/>
			<stop  offset="0.9824" style="stop-color:#51C5D1"/>
			<stop  offset="1" style="stop-color:#22BFCF"/>
		</linearGradient>
		<circle class="st1" cx="281.6" cy="156.9" r="13"/>
		
			<linearGradient id="SVGID_3_" gradientUnits="userSpaceOnUse" x1="11752.4551" y1="4290.4355" x2="11752.4551" y2="4318.9312" gradientTransform="matrix(0 -1 1 0 -4033.0352 11909.0449)">
			<stop  offset="0.2883" style="stop-color:#05548B"/>
			<stop  offset="0.3815" style="stop-color:#06578E"/>
			<stop  offset="0.5028" style="stop-color:#076194"/>
			<stop  offset="0.6399" style="stop-color:#0C719F"/>
			<stop  offset="0.7883" style="stop-color:#128AAF"/>
			<stop  offset="0.9444" style="stop-color:#20ACC3"/>
			<stop  offset="1" style="stop-color:#22BFCF"/>
		</linearGradient>
		<ellipse class="st2" cx="284.6" cy="156.6" rx="8.8" ry="10.8"/>
		<linearGradient id="SVGID_4_" gradientUnits="userSpaceOnUse" x1="331.0038" y1="131.817" x2="227.9147" y2="182.8902">
			<stop  offset="0" style="stop-color:#003863"/>
			<stop  offset="2.227258e-02" style="stop-color:#003A66"/>
			<stop  offset="5.091576e-02" style="stop-color:#00406E"/>
			<stop  offset="8.288371e-02" style="stop-color:#014A7C"/>
			<stop  offset="0.1104" style="stop-color:#05548B"/>
			<stop  offset="0.2122" style="stop-color:#075F93"/>
			<stop  offset="0.4206" style="stop-color:#0F80A8"/>
			<stop  offset="0.7117" style="stop-color:#22BFCF"/>
			<stop  offset="0.9325" style="stop-color:#9ED8D2"/>
		</linearGradient>
		<path class="st3" d="M294.9,182.5c-2,0-3.9,0.4-5.7,1.1c-3.9,1.3-8.8,2.9-14,4c-24.7,5.2-46.6-8.6-46.6-31.7
			c0-23,21.9-36.9,46.6-31.7c5.3,1.1,10.2,2.8,14,4c1.8,0.7,3.7,1.1,5.7,1.1c8.2,0,14.8-6.4,14.8-14.2c0-7-5.2-12.7-12.1-14
			c-4.6-1.1-9.3-1.5-14.4-1.5c-32.4,0-58.7,25-58.9,56h0c0,0,0,0,0,0c0,0.1,0,0.1,0,0.2c0,0.1,0,0.1,0,0.2c0,0,0,0,0,0h0
			c0.2,31,26.5,56,58.9,56c5,0,9.7-0.4,14.4-1.5c6.9-1.2,12.1-7,12.1-14C309.7,188.8,303.1,182.5,294.9,182.5z"/>
		<linearGradient id="SVGID_5_" gradientUnits="userSpaceOnUse" x1="233.4179" y1="158.6634" x2="303.507" y2="200.6225">
			<stop  offset="0" style="stop-color:#003863"/>
			<stop  offset="2.227258e-02" style="stop-color:#003A66"/>
			<stop  offset="5.091576e-02" style="stop-color:#00406E"/>
			<stop  offset="8.288371e-02" style="stop-color:#014A7C"/>
			<stop  offset="0.1104" style="stop-color:#05548B"/>
			<stop  offset="0.2122" style="stop-color:#075F93"/>
			<stop  offset="0.4206" style="stop-color:#0F80A8"/>
			<stop  offset="0.7117" style="stop-color:#22BFCF"/>
			<stop  offset="0.9325" style="stop-color:#9ED8D2"/>
		</linearGradient>
		<path class="st4" d="M296.4,182.5C296.4,182.5,296.4,182.5,296.4,182.5c-0.2,0-0.5,0-0.7,0c0,0-0.1,0-0.1,0c-0.3,0-0.5,0-0.8,0
			c-2,0-3.9,0.4-5.7,1.1c-3.9,1.3-8.8,2.9-14,4c-0.7,0.1-1.4,0.3-2.1,0.4c-0.2,0-0.5,0.1-0.7,0.1c-0.5,0.1-1,0.1-1.4,0.2
			c-0.3,0-0.5,0.1-0.8,0.1c-0.4,0-0.9,0.1-1.3,0.1c-0.3,0-0.5,0-0.8,0.1c-0.5,0-0.9,0-1.4,0.1c-0.2,0-0.5,0-0.7,0
			c-0.6,0-1.1,0-1.7,0c-0.1,0-0.3,0-0.4,0c-0.7,0-1.3,0-2-0.1c-0.2,0-0.4,0-0.7-0.1c-0.4,0-0.9-0.1-1.3-0.1c-0.3,0-0.5-0.1-0.8-0.1
			c-0.4-0.1-0.8-0.1-1.2-0.2c-0.3,0-0.5-0.1-0.8-0.1c-0.4-0.1-0.8-0.1-1.1-0.2c-0.3-0.1-0.5-0.1-0.8-0.2c-0.4-0.1-0.8-0.2-1.2-0.3
			c-0.2-0.1-0.4-0.1-0.7-0.2c-0.6-0.2-1.2-0.3-1.7-0.5c-0.2-0.1-0.5-0.2-0.7-0.3c-0.3-0.1-0.7-0.2-1-0.4c-0.3-0.1-0.5-0.2-0.8-0.3
			c-0.3-0.1-0.6-0.2-0.9-0.4c-0.3-0.1-0.6-0.2-0.8-0.4c-0.3-0.1-0.5-0.3-0.8-0.4c-0.3-0.1-0.6-0.3-0.8-0.4c-0.3-0.1-0.5-0.3-0.8-0.4
			c-0.3-0.2-0.5-0.3-0.8-0.5c-0.2-0.1-0.5-0.3-0.7-0.4c-0.5-0.3-1-0.7-1.5-1c-0.2-0.1-0.4-0.3-0.6-0.4c-0.3-0.2-0.5-0.4-0.8-0.6
			c-0.2-0.1-0.4-0.3-0.6-0.5c-0.3-0.2-0.5-0.4-0.8-0.7c-0.2-0.2-0.3-0.3-0.5-0.5c-0.3-0.2-0.5-0.5-0.8-0.7c-0.2-0.1-0.3-0.3-0.4-0.4
			c-0.3-0.3-0.5-0.5-0.8-0.8c-0.1-0.1-0.1-0.2-0.2-0.2c-0.6-0.6-1.1-1.3-1.6-2c-0.1-0.1-0.1-0.2-0.2-0.3c-0.2-0.3-0.4-0.6-0.7-0.9
			c-0.1-0.2-0.2-0.3-0.3-0.5c-0.2-0.3-0.4-0.6-0.6-0.9c-0.1-0.2-0.2-0.3-0.3-0.5c-0.2-0.3-0.4-0.6-0.5-1c-0.1-0.2-0.2-0.3-0.3-0.5
			c-0.2-0.4-0.3-0.7-0.5-1.1c-0.1-0.1-0.1-0.2-0.1-0.3c-0.4-0.9-0.7-1.8-1.1-2.7c-1-3.2-1.6-6.6-1.6-10.3c0-11.2,5.2-20.2,13.4-25.9
			c-10.4,6.9-17.1,18.4-17.1,31.4c0,0.6,0,1.2,0.1,1.8c0.2,1.3,0.4,2.6,0.7,3.8h0c0,0.2,0.1,0.3,0.1,0.5c0.1,0.5,0.2,0.9,0.3,1.4
			c0.1,0.4,0.2,0.7,0.3,1.1c0.1,0.4,0.2,0.9,0.4,1.3c0.1,0.4,0.2,0.7,0.3,1.1c0.1,0.4,0.3,0.8,0.4,1.2c0.1,0.4,0.3,0.7,0.4,1.1
			c0.1,0.4,0.3,0.8,0.4,1.2c0.2,0.4,0.3,0.8,0.5,1.2c0.2,0.4,0.3,0.7,0.5,1.1c0.2,0.4,0.4,0.8,0.5,1.2c0.2,0.3,0.3,0.7,0.5,1
			c0.2,0.4,0.4,0.8,0.6,1.2c0.1,0.2,0.2,0.4,0.3,0.6c0,0,0,0.1,0.1,0.1c9.9,17.8,29.5,29.9,52,29.9c5,0,9.7-0.4,14.4-1.5
			c6.9-1.2,12.1-7,12.1-14C309.7,189.3,303.9,183.3,296.4,182.5z"/>
		<linearGradient id="SVGID_6_" gradientUnits="userSpaceOnUse" x1="271.2954" y1="118.388" x2="289.6819" y2="108.8018">
			<stop  offset="0" style="stop-color:#003863"/>
			<stop  offset="2.227258e-02" style="stop-color:#003A66"/>
			<stop  offset="5.091576e-02" style="stop-color:#00406E"/>
			<stop  offset="8.288371e-02" style="stop-color:#014A7C"/>
			<stop  offset="0.1104" style="stop-color:#05548B"/>
			<stop  offset="0.2122" style="stop-color:#075F93"/>
			<stop  offset="0.4206" style="stop-color:#0F80A8"/>
			<stop  offset="0.7117" style="stop-color:#22BFCF"/>
			<stop  offset="0.9325" style="stop-color:#9ED8D2"/>
		</linearGradient>
		<path class="st5" d="M297.6,101.2c-4.6-1.1-9.3-1.5-14.4-1.5c-26.6,0-49,16.8-56.4,40c6.6-10.8,18.2-23.5,35.5-27.5
			c27.9-6.4,41,0.3,46.9,6.8c0.3-1.2,0.5-2.5,0.5-3.8C309.7,108.2,304.5,102.4,297.6,101.2z"/>
		<linearGradient id="SVGID_7_" gradientUnits="userSpaceOnUse" x1="261.014" y1="182.9757" x2="253.2609" y2="186.957">
			<stop  offset="9.202450e-02" style="stop-color:#9ED8D2"/>
			<stop  offset="0.8063" style="stop-color:#9ED8D2"/>
			<stop  offset="0.9141" style="stop-color:#9ED8D2"/>
		</linearGradient>
		<path class="st6" d="M308.1,190.3c-0.5,7.3-17.1,14.4-47.9,8.3c-30-5.9-35-31.4-34.8-44.5c-0.5,2.4-0.7,4.8-0.7,7.3
			c0,0.6,0,1.2,0.1,1.8c0.2,1.3,0.4,2.6,0.7,3.8h0c0,0.2,0.1,0.3,0.1,0.5c0.1,0.5,0.2,0.9,0.3,1.4c0.1,0.4,0.2,0.7,0.3,1.1
			c0.1,0.4,0.2,0.9,0.4,1.3c0.1,0.4,0.2,0.7,0.3,1.1c0.1,0.4,0.3,0.8,0.4,1.2c0.1,0.4,0.3,0.7,0.4,1.1c0.1,0.4,0.3,0.8,0.4,1.2
			c0.2,0.4,0.3,0.8,0.5,1.2c0.2,0.4,0.3,0.7,0.5,1.1c0.2,0.4,0.4,0.8,0.5,1.2c0.2,0.3,0.3,0.7,0.5,1c0.2,0.4,0.4,0.8,0.6,1.2
			c0.1,0.2,0.2,0.4,0.3,0.6c0,0,0,0.1,0.1,0.1c9.9,17.8,29.5,29.9,52,29.9c5,0,9.7-0.4,14.4-1.5c6.9-1.2,12.1-7,12.1-14
			C309.7,194.4,309.2,192.2,308.1,190.3z"/>
	</g>
</g>
</svg>
